<?xml version="1.0" encoding="UTF-8" standalone="no"?>
<!-- Created with Inkscape (http://www.inkscape.org/) -->

<svg
   xmlns:dc="http://purl.org/dc/elements/1.1/"
   xmlns:cc="http://creativecommons.org/ns#"
   xmlns:rdf="http://www.w3.org/1999/02/22-rdf-syntax-ns#"
   xmlns:svg="http://www.w3.org/2000/svg"
   xmlns="http://www.w3.org/2000/svg"
   xmlns:sodipodi="http://sodipodi.sourceforge.net/DTD/sodipodi-0.dtd"
   xmlns:inkscape="http://www.inkscape.org/namespaces/inkscape"
   width="38mm"
   height="31mm"
   viewBox="0 0 38 31"
   version="1.1"
   id="svg8"
   sodipodi:docname="logo-login.svg"
   inkscape:version="0.92.4 (f8dce91, 2019-08-02)">
  <defs
     id="defs2">
    <inkscape:path-effect
       effect="perspective-envelope"
       up_left_point="293.57227,491.65969"
       up_right_point="473.57,459.66211"
       down_left_point="293.57227,552.51969"
       down_right_point="473.57,568.94727"
       id="path-effect4530"
       is_visible="true"
       deform_type="perspective"
       horizontal_mirror="false"
       vertical_mirror="false"
       overflow_perspective="false" />
  </defs>
  <sodipodi:namedview
     id="base"
     pagecolor="#ffffff"
     bordercolor="#666666"
     borderopacity="1.0"
     inkscape:pageopacity="0.0"
     inkscape:pageshadow="2"
     inkscape:zoom="0.98994949"
     inkscape:cx="1.5579585"
     inkscape:cy="270.3666"
     inkscape:document-units="mm"
     inkscape:current-layer="layer1"
     showgrid="false"
     inkscape:window-width="1533"
     inkscape:window-height="845"
     inkscape:window-x="67"
     inkscape:window-y="27"
     inkscape:window-maximized="1" />
  <metadata
     id="metadata5">
    <rdf:RDF>
      <cc:Work
         rdf:about="">
        <dc:format>image/svg+xml</dc:format>
        <dc:type
           rdf:resource="http://purl.org/dc/dcmitype/StillImage" />
        <dc:title></dc:title>
      </cc:Work>
    </rdf:RDF>
  </metadata>
  <g
     inkscape:label="Layer 1"
     inkscape:groupmode="layer"
     id="layer1"
     transform="translate(0,-266)">
    <g
       id="g4662"
       transform="translate(-75.091992,143.79101)">
      <path
         inkscape:connector-curvature="0"
         inkscape:original-d="m 307.46875,459.66211 c -7.69931,0 -13.89648,4.28631 -13.89648,9.61133 v 90.0625 c 0,5.32497 6.19717,9.61133 13.89648,9.61133 h 152.20508 c 7.69931,0 13.89844,-4.28636 13.89844,-9.61133 v -90.0625 c 0,-5.32502 -6.19913,-9.61133 -13.89844,-9.61133 z m 3.96094,7.85742 h 150 v 92.14258 h -150 z M 302.5,508.94922 a 5.3571429,5.3571429 0 0 1 5.35742,5.35547 5.3571429,5.3571429 0 0 1 -5.35742,5.35742 5.3571429,5.3571429 0 0 1 -5.35742,-5.35742 5.3571429,5.3571429 0 0 1 5.35742,-5.35547 z"
         inkscape:path-effect="#path-effect4530"
         transform="matrix(-0.19213698,0,0,0.26458333,168.66524,0)"
         id="rect819"
         d="m 301.58512,490.23527 c -4.50828,0.80142 -8.01285,3.81143 -8.01285,6.77689 0,0 0,50.15506 0,50.15506 0,2.96543 3.50457,5.67232 8.01285,6.08377 0,0 148.47256,13.55042 148.47256,13.55042 12.6777,1.15703 23.51232,-2.1405 23.51232,-7.46547 0,0 0,-90.0625 0,-90.0625 0,-5.32502 -10.83462,-7.6853 -23.51232,-5.43163 0,0 -148.47256,26.39346 -148.47256,26.39346 z m 2.38893,4.15226 c 0,0 148.90274,-23.58971 148.90274,-23.58971 0,0 0,87.44871 0,87.44871 0,0 -148.90274,-10.18611 -148.90274,-10.18611 0,0 0,-53.67289 0,-53.67289 z m -5.31834,24.43286 c 1.73512,-0.098 3.16114,1.20533 3.16169,2.91269 9e-5,1.70784 -1.42612,3.13521 -3.16169,3.18729 -1.70991,0.0515 -3.07765,-1.25504 -3.07756,-2.91744 5.2e-4,-1.66198 1.36808,-3.08615 3.07756,-3.18254 z"
         style="fill:#ffffff;stroke:none;stroke-width:1.38943875" />
      <path
         sodipodi:nodetypes="cccc"
         inkscape:connector-curvature="0"
         id="path4536"
         d="m 79.941963,152.23511 9.827383,-0.56696 -4.157739,-4.15774 z"
         style="fill:#ffffff;stroke:none;stroke-width:0.26458332px;stroke-linecap:butt;stroke-linejoin:miter;stroke-opacity:1" />
      <path
         sodipodi:nodetypes="cccc"
         inkscape:connector-curvature="0"
         id="path4536-3"
         d="m 106.66254,148.37164 6.23661,-0.34018 -2.63857,-2.49464 z"
         style="fill:#ffffff;stroke:none;stroke-width:0.16326508px;stroke-linecap:butt;stroke-linejoin:miter;stroke-opacity:1" />
    </g>
  </g>
</svg>
